<svg width="148" height="161" viewBox="0 0 148 161" fill="none" xmlns="http://www.w3.org/2000/svg">
<mask id="mask0_1_117" style="mask-type:luminance" maskUnits="userSpaceOnUse" x="0" y="0" width="148" height="130">
<path d="M0 0H147.176V129.329H0V0Z" fill="white"/>
</mask>
<g mask="url(#mask0_1_117)">
<mask id="mask1_1_117" style="mask-type:luminance" maskUnits="userSpaceOnUse" x="0" y="0" width="148" height="130">
<path d="M73.5878 0C32.9468 0 0 28.9517 0 64.6645C0 100.377 32.9468 129.329 73.5878 129.329C114.229 129.329 147.176 100.377 147.176 64.6645C147.176 28.9517 114.229 0 73.5878 0Z" fill="white"/>
</mask>
<g mask="url(#mask1_1_117)">
<path d="M0 0H147.176V129.329H0V0Z" fill="#8BA896"/>
</g>
</g>
<mask id="mask2_1_117" style="mask-type:luminance" maskUnits="userSpaceOnUse" x="30" y="32" width="90" height="78">
<path d="M30.9826 32.3322H119.288V109.93H30.9826V32.3322Z" fill="white"/>
</mask>
<g mask="url(#mask2_1_117)">
<mask id="mask3_1_117" style="mask-type:luminance" maskUnits="userSpaceOnUse" x="30" y="32" width="90" height="78">
<path d="M75.1353 32.3322C50.7497 32.3322 30.9826 49.7024 30.9826 71.1309C30.9826 92.5594 50.7497 109.93 75.1353 109.93C99.5184 109.93 119.288 92.5594 119.288 71.1309C119.288 49.7024 99.5184 32.3322 75.1353 32.3322Z" fill="white"/>
</mask>
<g mask="url(#mask3_1_117)">
<path d="M30.9826 32.3322H119.288V109.93H30.9826V32.3322Z" fill="#30824E"/>
</g>
</g>
<mask id="mask4_1_117" style="mask-type:luminance" maskUnits="userSpaceOnUse" x="53" y="51" width="15" height="14">
<path d="M53.0589 51.7316H67.7765V64.6645H53.0589V51.7316Z" fill="white"/>
</mask>
<g mask="url(#mask4_1_117)">
<mask id="mask5_1_117" style="mask-type:luminance" maskUnits="userSpaceOnUse" x="53" y="51" width="15" height="14">
<path d="M60.4177 51.7316C56.3527 51.7316 53.0589 54.6259 53.0589 58.198C53.0589 61.7701 56.3527 64.6645 60.4177 64.6645C64.4804 64.6645 67.7765 61.7701 67.7765 58.198C67.7765 54.6259 64.4804 51.7316 60.4177 51.7316Z" fill="white"/>
</mask>
<g mask="url(#mask5_1_117)">
<path d="M53.0589 51.7316H67.7765V64.6645H53.0589V51.7316Z" fill="black"/>
</g>
</g>
<mask id="mask6_1_117" style="mask-type:luminance" maskUnits="userSpaceOnUse" x="82" y="51" width="16" height="14">
<path d="M82.494 51.7316H97.2116V64.6645H82.494V51.7316Z" fill="white"/>
</mask>
<g mask="url(#mask6_1_117)">
<mask id="mask7_1_117" style="mask-type:luminance" maskUnits="userSpaceOnUse" x="82" y="51" width="16" height="14">
<path d="M89.8528 51.7316C85.7878 51.7316 82.494 54.6259 82.494 58.198C82.494 61.7701 85.7878 64.6645 89.8528 64.6645C93.9155 64.6645 97.2116 61.7701 97.2116 58.198C97.2116 54.6259 93.9155 51.7316 89.8528 51.7316Z" fill="white"/>
</mask>
<g mask="url(#mask7_1_117)">
<path d="M82.494 51.7316H97.2116V64.6645H82.494V51.7316Z" fill="black"/>
</g>
</g>
<mask id="mask8_1_117" style="mask-type:luminance" maskUnits="userSpaceOnUse" x="30" y="90" width="90" height="71">
<path d="M30.0483 90.7997H119.58V160.314H30.0483V90.7997Z" fill="white"/>
</mask>
<g mask="url(#mask8_1_117)">
<mask id="mask9_1_117" style="mask-type:luminance" maskUnits="userSpaceOnUse" x="7" y="58" width="113" height="102">
<path d="M7.35879 124.466L53.3009 58.198L119.288 93.5235L73.3459 159.792L7.35879 124.466Z" fill="white"/>
</mask>
<g mask="url(#mask9_1_117)">
<mask id="mask10_1_117" style="mask-type:luminance" maskUnits="userSpaceOnUse" x="30" y="91" width="90" height="69">
<path d="M30.3286 91.3322L119.288 93.5235L73.3459 159.792L30.3286 91.3322Z" fill="white"/>
</mask>
<g mask="url(#mask10_1_117)">
<path d="M7.35879 124.466L53.3009 58.198L119.288 93.5235L73.3459 159.792L7.35879 124.466Z" fill="#458B5E"/>
</g>
</g>
</g>
<mask id="mask11_1_117" style="mask-type:luminance" maskUnits="userSpaceOnUse" x="42" y="90" width="67" height="59">
<path d="M42.0208 90.5303H108.25V148.728H42.0208V90.5303Z" fill="white"/>
</mask>
<g mask="url(#mask11_1_117)">
<mask id="mask12_1_117" style="mask-type:luminance" maskUnits="userSpaceOnUse" x="42" y="90" width="67" height="59">
<path d="M75.1353 148.728L108.25 119.629H91.6925V90.5303H58.578V119.629H42.0208L75.1353 148.728Z" fill="white"/>
</mask>
<g mask="url(#mask12_1_117)">
<path d="M108.25 148.728H42.0208V90.5303H108.25V148.728Z" fill="#58C881"/>
</g>
</g>
<path d="M23.6214 103.461L35.292 72.3665" stroke="#58C881" stroke-width="11.0021"/>
<path d="M130.144 103.398L114.229 72.0171" stroke="#58C881" stroke-width="11.003"/>
<mask id="mask13_1_117" style="mask-type:luminance" maskUnits="userSpaceOnUse" x="66" y="72" width="16" height="17">
<path d="M66.6339 72.5623H81.1933V88.3074H66.6339V72.5623Z" fill="white"/>
</mask>
<g mask="url(#mask13_1_117)">
<mask id="mask14_1_117" style="mask-type:luminance" maskUnits="userSpaceOnUse" x="66" y="72" width="16" height="17">
<path d="M71.4894 87.9391C72.2368 88.1622 73.0848 88.3074 73.9184 88.3074C74.7496 88.3074 75.5521 88.1832 76.2899 87.9601C76.3067 87.9538 76.321 87.9538 76.3378 87.9454C79.1117 87.0529 81.155 84.6974 81.1933 81.9441V72.5623H66.6339V81.9378C66.6746 84.7122 68.6844 87.0676 71.4894 87.9391Z" fill="white"/>
</mask>
<g mask="url(#mask14_1_117)">
<path d="M66.6339 72.5623H81.1933V88.3074H66.6339V72.5623Z" fill="#FF5757"/>
</g>
</g>
<path d="M74.2154 83.6681V77.2016" stroke="white"/>
<mask id="mask15_1_117" style="mask-type:luminance" maskUnits="userSpaceOnUse" x="42" y="20" width="25" height="27">
<path d="M42.313 20.7465H66.229V46.6123H42.313V20.7465Z" fill="white"/>
</mask>
<g mask="url(#mask15_1_117)">
<mask id="mask16_1_117" style="mask-type:luminance" maskUnits="userSpaceOnUse" x="40" y="19" width="26" height="28">
<path d="M65.635 42.1498L46.6032 46.105L40.4541 23.2725L59.4859 19.3151L65.635 42.1498Z" fill="white"/>
</mask>
<g mask="url(#mask16_1_117)">
<mask id="mask17_1_117" style="mask-type:luminance" maskUnits="userSpaceOnUse" x="42" y="21" width="24" height="26">
<path d="M53.2889 21.197C52.2349 21.1065 51.0755 21.1465 49.9856 21.3738C48.8981 21.599 47.8944 21.9821 47.0081 22.4726C46.9889 22.4873 46.9698 22.4915 46.9506 22.5042C43.6401 24.4239 41.798 28.0592 42.7298 31.7176L46.6033 46.105L65.635 42.1498L61.764 27.7708C60.722 24.106 57.2629 21.5717 53.2889 21.197Z" fill="white"/>
</mask>
<g mask="url(#mask17_1_117)">
<path d="M65.635 42.1498L46.6032 46.105L40.4541 23.2725L59.4859 19.3151L65.635 42.1498Z" fill="#58C881"/>
</g>
</g>
</g>
<mask id="mask18_1_117" style="mask-type:luminance" maskUnits="userSpaceOnUse" x="85" y="21" width="25" height="26">
<path d="M85.8524 21.2854H109.768V46.6123H85.8524V21.2854Z" fill="white"/>
</mask>
<g mask="url(#mask18_1_117)">
<mask id="mask19_1_117" style="mask-type:luminance" maskUnits="userSpaceOnUse" x="85" y="19" width="27" height="28">
<path d="M104.003 46.1092L85.9411 40.9942L93.8891 19.3236L111.951 24.4386L104.003 46.1092Z" fill="white"/>
</mask>
<g mask="url(#mask19_1_117)">
<mask id="mask20_1_117" style="mask-type:luminance" maskUnits="userSpaceOnUse" x="85" y="21" width="25" height="26">
<path d="M105.732 23.2641C104.908 22.7252 103.921 22.2453 102.889 21.9527C101.854 21.6601 100.802 21.5338 99.7843 21.5527C99.7627 21.5548 99.7436 21.5485 99.7196 21.5527C95.8726 21.6853 92.2674 23.8892 90.9499 27.3372L85.9411 40.9942L104.003 46.1092L109.007 32.4628C110.238 28.9601 108.815 25.3311 105.732 23.2641Z" fill="white"/>
</mask>
<g mask="url(#mask20_1_117)">
<path d="M104.003 46.1092L85.9411 40.9942L93.8891 19.3236L111.951 24.4386L104.003 46.1092Z" fill="#58C881"/>
</g>
</g>
</g>
<mask id="mask21_1_117" style="mask-type:luminance" maskUnits="userSpaceOnUse" x="57" y="55" width="7" height="6">
<path d="M57.2725 55.4342H63.5629V60.9618H57.2725V55.4342Z" fill="white"/>
</mask>
<g mask="url(#mask21_1_117)">
<mask id="mask22_1_117" style="mask-type:luminance" maskUnits="userSpaceOnUse" x="57" y="55" width="7" height="6">
<path d="M60.4177 55.4342C58.681 55.4342 57.2725 56.6719 57.2725 58.198C57.2725 59.7241 58.681 60.9618 60.4177 60.9618C62.1544 60.9618 63.5629 59.7241 63.5629 58.198C63.5629 56.6719 62.1544 55.4342 60.4177 55.4342Z" fill="white"/>
</mask>
<g mask="url(#mask22_1_117)">
<path d="M57.2725 55.4342H63.5629V60.9618H57.2725V55.4342Z" fill="white"/>
</g>
</g>
<mask id="mask23_1_117" style="mask-type:luminance" maskUnits="userSpaceOnUse" x="86" y="55" width="7" height="6">
<path d="M86.7077 55.4342H92.9981V60.9618H86.7077V55.4342Z" fill="white"/>
</mask>
<g mask="url(#mask23_1_117)">
<mask id="mask24_1_117" style="mask-type:luminance" maskUnits="userSpaceOnUse" x="86" y="55" width="7" height="6">
<path d="M89.8529 55.4342C88.1162 55.4342 86.7077 56.6719 86.7077 58.198C86.7077 59.7241 88.1162 60.9618 89.8529 60.9618C91.5896 60.9618 92.9981 59.7241 92.9981 58.198C92.9981 56.6719 91.5896 55.4342 89.8529 55.4342Z" fill="white"/>
</mask>
<g mask="url(#mask24_1_117)">
<path d="M86.7077 55.4342H92.9981V60.9618H86.7077V55.4342Z" fill="white"/>
</g>
</g>
</svg>
