<svg width="113" height="64" viewBox="0 0 113 64" fill="none" xmlns="http://www.w3.org/2000/svg">
<path d="M64 32C64 49.6731 49.6731 64 32 64C14.3269 64 0 49.6731 0 32C0 14.3269 14.3269 0 32 0C49.6731 0 64 14.3269 64 32Z" fill="#58C881"/>
<path d="M15.7051 37H13.3906V30.3261H11.2988V28.4336H17.791V30.3261H15.7051V37ZM18.0781 30.3613H20.4922L21.6172 34.1699C21.6328 34.2246 21.6484 34.2929 21.6641 34.375C21.6797 34.4531 21.6934 34.5371 21.7051 34.6269C21.7168 34.7168 21.7246 34.8047 21.7285 34.8906H21.7754C21.7949 34.7304 21.8164 34.5918 21.8398 34.4746C21.8672 34.3535 21.8926 34.2558 21.916 34.1816L23.0703 30.3613H25.4082L22.7832 37.4218C22.5801 37.9609 22.3438 38.4121 22.0742 38.7754C21.8086 39.1425 21.4785 39.4179 21.084 39.6015C20.6934 39.789 20.207 39.8828 19.625 39.8828C19.4141 39.8828 19.2324 39.8711 19.0801 39.8476C18.9316 39.8281 18.8008 39.8066 18.6875 39.7832V37.9843C18.7734 38 18.8789 38.0156 19.0039 38.0312C19.1289 38.0468 19.2598 38.0547 19.3965 38.0547C19.6504 38.0547 19.8555 38.0039 20.0117 37.9023C20.1719 37.8008 20.3027 37.666 20.4043 37.498C20.5059 37.334 20.5938 37.1562 20.668 36.9648L20.6914 36.9062L18.0781 30.3613ZM28.2676 37.1172C27.584 37.1172 27.0215 36.8261 26.5801 36.2441C26.1387 35.6621 25.918 34.8105 25.918 33.6894C25.918 32.5566 26.1445 31.6992 26.5977 31.1172C27.0508 30.5351 27.6367 30.2441 28.3555 30.2441C28.6523 30.2441 28.9082 30.2871 29.123 30.373C29.3379 30.459 29.5234 30.5761 29.6797 30.7246C29.8398 30.8691 29.9785 31.0332 30.0957 31.2168H30.1426C30.1152 31.0488 30.0898 30.8183 30.0664 30.5254C30.043 30.2285 30.0312 29.9394 30.0312 29.6582V27.8828H32.3398V37H30.6113L30.1191 36.1621H30.0312C29.9258 36.3379 29.793 36.498 29.6328 36.6425C29.4766 36.7871 29.2852 36.9023 29.0586 36.9883C28.8359 37.0742 28.5723 37.1172 28.2676 37.1172ZM29.2051 35.3066C29.5723 35.3066 29.8301 35.1914 29.9785 34.9609C30.1309 34.7265 30.2129 34.3711 30.2246 33.8945V33.7129C30.2246 33.1894 30.1504 32.789 30.002 32.5117C29.8574 32.2304 29.584 32.0898 29.1816 32.0898C28.9082 32.0898 28.6816 32.2226 28.502 32.4883C28.3223 32.7539 28.2324 33.166 28.2324 33.7246C28.2324 34.2754 28.3223 34.6777 28.502 34.9316C28.6855 35.1816 28.9199 35.3066 29.2051 35.3066ZM37.9355 30.2441C38.0605 30.2441 38.1914 30.2539 38.3281 30.2734C38.4648 30.289 38.5664 30.3027 38.6328 30.3144L38.4277 32.4765C38.3535 32.457 38.2578 32.4414 38.1406 32.4297C38.0234 32.414 37.8594 32.4062 37.6484 32.4062C37.5039 32.4062 37.3496 32.4199 37.1855 32.4472C37.0215 32.4746 36.8652 32.5332 36.7168 32.623C36.5723 32.709 36.4531 32.8418 36.3594 33.0215C36.2656 33.1972 36.2188 33.4355 36.2188 33.7363V37H33.9277V30.3613H35.6328L35.9902 31.4218H36.1016C36.2227 31.2031 36.377 31.0058 36.5645 30.83C36.7559 30.6504 36.9688 30.5078 37.2031 30.4023C37.4414 30.2968 37.6855 30.2441 37.9355 30.2441ZM42.5527 30.2441C43.1973 30.2441 43.7539 30.3574 44.2227 30.584C44.6914 30.8066 45.0527 31.1425 45.3066 31.5918C45.5605 32.041 45.6875 32.6035 45.6875 33.2793V34.2988H41.5918C41.6113 34.6465 41.7402 34.9316 41.9785 35.1543C42.2207 35.3769 42.5762 35.4883 43.0449 35.4883C43.459 35.4883 43.8379 35.4472 44.1816 35.3652C44.5293 35.2832 44.8867 35.1562 45.2539 34.9843V36.6308C44.9336 36.7988 44.584 36.9218 44.2051 37C43.8262 37.0781 43.3477 37.1172 42.7695 37.1172C42.1016 37.1172 41.5039 36.998 40.9766 36.7597C40.4492 36.5215 40.0332 36.1523 39.7285 35.6523C39.4277 35.1523 39.2773 34.5097 39.2773 33.7246C39.2773 32.9277 39.4141 32.2734 39.6875 31.7617C39.9609 31.2461 40.3438 30.8652 40.8359 30.6191C41.3281 30.3691 41.9004 30.2441 42.5527 30.2441ZM42.6348 31.8027C42.3652 31.8027 42.1387 31.8886 41.9551 32.0605C41.7754 32.2285 41.6699 32.4941 41.6387 32.8574H43.6074C43.6035 32.6621 43.5645 32.4843 43.4902 32.3242C43.416 32.164 43.3066 32.0371 43.1621 31.9433C43.0215 31.8496 42.8457 31.8027 42.6348 31.8027ZM51.7109 37H49.3613V32.7636C49.3613 32.6855 49.3613 32.5429 49.3613 32.3359C49.3613 32.125 49.3633 31.8925 49.3672 31.6386C49.375 31.3847 49.3848 31.1562 49.3965 30.9531C49.2949 31.0742 49.1992 31.1777 49.1094 31.2636C49.0234 31.3496 48.9395 31.4297 48.8574 31.5039L47.8848 32.3066L46.6836 30.83L49.625 28.4336H51.7109V37Z" fill="white"/>
<path d="M19.5 11L20.5103 14.1094H23.7798L21.1347 16.0312L22.145 19.1406L19.5 17.2188L16.855 19.1406L17.8653 16.0312L15.2202 14.1094H18.4897L19.5 11Z" fill="#D9D9D9"/>
<path d="M49.5 43L50.5103 46.1094H53.7798L51.1347 48.0312L52.145 51.1406L49.5 49.2188L46.855 51.1406L47.8653 48.0312L45.2202 46.1094H48.4897L49.5 43Z" fill="#D9D9D9"/>
<path d="M15.5 45L16.5103 48.1094H19.7798L17.1347 50.0312L18.145 53.1406L15.5 51.2188L12.855 53.1406L13.8653 50.0312L11.2202 48.1094H14.4897L15.5 45Z" fill="#D9D9D9"/>
<path d="M40.5 15L41.5103 18.1094H44.7798L42.1347 20.0312L43.145 23.1406L40.5 21.2188L37.855 23.1406L38.8653 20.0312L36.2202 18.1094H39.4897L40.5 15Z" fill="#D9D9D9"/>
</svg>
