<svg width="444" height="94" viewBox="0 0 444 94" fill="none" xmlns="http://www.w3.org/2000/svg">
<path d="M69.8885 4.144V21.68H46.0805V94H24.1925V21.68H0.3845V4.144H69.8885ZM157.93 4.144L126.826 64.304V94H104.938V64.304L73.8335 4.144H98.6655L116.074 41.776L133.354 4.144H157.93ZM200.413 4.144C209.885 4.144 218.162 6.02133 225.245 9.77599C232.327 13.5307 237.789 18.8213 241.629 25.648C245.554 32.3893 247.517 40.1973 247.517 49.072C247.517 57.8613 245.554 65.6693 241.629 72.496C237.789 79.3227 232.285 84.6133 225.117 88.368C218.034 92.1227 209.799 94 200.413 94H166.749V4.144H200.413ZM199.005 75.056C207.282 75.056 213.725 72.7947 218.333 68.272C222.941 63.7493 225.245 57.3493 225.245 49.072C225.245 40.7947 222.941 34.352 218.333 29.744C213.725 25.136 207.282 22.832 199.005 22.832H188.637V75.056H199.005ZM305.573 94L286.885 60.08H281.637V94H259.749V4.144H296.485C303.567 4.144 309.583 5.38133 314.533 7.856C319.567 10.3307 323.322 13.744 325.797 18.096C328.271 22.3627 329.509 27.1413 329.509 32.432C329.509 38.4053 327.802 43.7387 324.389 48.432C321.061 53.1253 316.111 56.4533 309.541 58.416L330.277 94H305.573ZM281.637 44.592H295.205C299.215 44.592 302.202 43.6107 304.165 41.648C306.213 39.6853 307.237 36.912 307.237 33.328C307.237 29.9147 306.213 27.2267 304.165 25.264C302.202 23.3013 299.215 22.32 295.205 22.32H281.637V44.592ZM365.137 21.68V39.856H394.449V56.752H365.137V76.464H398.289V94H343.249V4.144H398.289V21.68H365.137ZM408.019 20.912V0.559998H443.475V94H420.691V20.912H408.019Z" fill="#58C881"/>
</svg>
